<?xml version="1.0" encoding="utf-8"?><!-- Uploaded to: SVG Repo, www.svgrepo.com, Generator: SVG Repo Mixer Tools -->
<svg width="800px" height="800px" viewBox="0 0 24 24" fill="none" xmlns="http://www.w3.org/2000/svg">
<path d="M13.5 3H12H8C6.34315 3 5 4.34315 5 6V18C5 19.6569 6.34315 21 8 21H11M13.5 3L19 8.625M13.5 3V7.625C13.5 8.17728 13.9477 8.625 14.5 8.625H19M19 8.625V11.8125" stroke="#000000" stroke-width="2" stroke-linecap="round" stroke-linejoin="round"/>
<path d="M16.2426 20.4853L15.5355 21.1924C15.9261 21.5829 16.5592 21.5829 16.9497 21.1924L16.2426 20.4853ZM16.2426 14.8285L15.5355 15.5356C15.7231 15.7231 15.9774 15.8285 16.2426 15.8285C16.5079 15.8285 16.7622 15.7231 16.9497 15.5356L16.2426 14.8285ZM14.1213 16.9498C13.7308 16.5593 13.7308 15.9261 14.1213 15.5356L12.7071 14.1214C11.5355 15.2929 11.5355 17.1924 12.7071 18.364L14.1213 16.9498ZM16.9497 19.7782L14.1213 16.9498L12.7071 18.364L15.5355 21.1924L16.9497 19.7782ZM18.364 16.9498L15.5355 19.7782L16.9497 21.1924L19.7782 18.364L18.364 16.9498ZM18.364 15.5356C18.7545 15.9261 18.7545 16.5593 18.364 16.9498L19.7782 18.364C20.9497 17.1924 20.9497 15.2929 19.7782 14.1214L18.364 15.5356ZM16.9497 15.5356C17.3403 15.145 17.9734 15.145 18.364 15.5356L19.7782 14.1214C18.6066 12.9498 16.7071 12.9498 15.5355 14.1214L16.9497 15.5356ZM14.1213 15.5356C14.5118 15.145 15.145 15.145 15.5355 15.5356L16.9497 14.1214C15.7782 12.9498 13.8787 12.9498 12.7071 14.1214L14.1213 15.5356Z" fill="#000000"/>
</svg>